<svg width="32" height="32" viewBox="0 0 32 32" fill="none" xmlns="http://www.w3.org/2000/svg">
<path fill-rule="evenodd" clip-rule="evenodd" d="M20.9598 4.59C20.7998 4.23 20.4398 4 20.0498 4H11.9498C11.5598 4 11.1998 4.23 11.0398 4.59L10.2298 6.42001C10.0898 6.71001 9.82977 6.92999 9.50977 6.98999L9.00977 7.09C6.67977 7.56 4.99976 9.60999 4.99976 11.99V20.99C4.99976 23.75 7.23976 25.99 9.99976 25.99H21.9998C24.7598 25.99 26.9998 23.75 26.9998 20.99V11.99C26.9998 9.60999 25.3198 7.56 22.9898 7.09L22.4898 6.98999C22.1698 6.92999 21.8998 6.72001 21.7698 6.42001L20.9598 4.59ZM11.9498 2H20.0498C21.2398 2 22.3098 2.7 22.8098 3.78L23.4098 5.14001C26.5998 5.79001 29.0098 8.61 29.0098 12V21C29.0098 24.87 25.8798 28 22.0098 28H10.0098C6.13977 28 3.00977 24.87 3.00977 21V12C3.00977 8.61 5.40976 5.79001 8.60976 5.14001L9.20976 3.78C9.68976 2.7 10.7598 2 11.9498 2ZM20.4998 16C20.4998 13.52 18.4798 11.5 15.9998 11.5C13.5198 11.5 11.4998 13.52 11.4998 16C11.4998 18.48 13.5198 20.5 15.9998 20.5C18.4798 20.5 20.4998 18.48 20.4998 16ZM9.49976 16C9.49976 12.41 12.4098 9.5 15.9998 9.5C19.5898 9.5 22.4998 12.41 22.4998 16C22.4998 19.59 19.5898 22.5 15.9998 22.5C12.4098 22.5 9.49976 19.59 9.49976 16Z" fill="#314146"/>
</svg>
