<svg width="24" height="24" viewBox="0 0 24 24" fill="none" xmlns="http://www.w3.org/2000/svg">
<path d="M13.4115 12.0001L18.7072 6.71006C19.0976 6.32006 19.0976 5.69006 18.7072 5.30006C18.3168 4.91006 17.6861 4.91006 17.2957 5.30006L12 10.5901L6.70433 5.29006C6.31391 4.90006 5.68323 4.90006 5.29281 5.29006C4.9024 5.68006 4.9024 6.31006 5.29281 6.70006L10.5885 12.0001L5.29281 17.2901C4.9024 17.6801 4.9024 18.3101 5.29281 18.7001C5.68323 19.0901 6.31391 19.0901 6.70433 18.7001L12 13.4101L17.2957 18.7001C17.6861 19.0901 18.3168 19.0901 18.7072 18.7001C19.0976 18.3101 19.0976 17.6801 18.7072 17.2901L13.4115 12.0001Z" fill="#314146"/>
</svg>
