<svg width="32" height="32" viewBox="0 0 32 32" fill="none" xmlns="http://www.w3.org/2000/svg">
<path d="M26.1502 7.00012C26.0802 7.00012 26.0102 7.01012 25.9402 7.03012L20.7002 8.47012C20.3502 8.57012 19.9802 8.58012 19.6202 8.51012L18.5202 8.29012C17.7202 6.06012 15.9402 4.30012 13.5602 3.65012C12.8802 3.46012 12.1802 3.37012 11.4902 3.37012C7.35023 3.37012 3.99023 6.73012 3.99023 10.8701C3.99023 12.4301 4.40023 13.6701 4.99023 14.7401V26.0701C4.99023 26.5801 5.37023 26.9901 5.84023 26.9901C5.91023 26.9901 5.98023 26.9801 6.05023 26.9601L11.2902 25.5101C11.6502 25.4101 12.0202 25.4001 12.3802 25.4701L19.7702 26.9401C20.1702 27.0201 20.5902 26.9901 20.9802 26.8601L26.1002 25.1301C26.6302 24.9501 26.9902 24.4201 26.9902 23.8201V7.92012C27.0002 7.41012 26.6202 7.00012 26.1502 7.00012ZM13.9802 16.6501C13.4602 17.2201 12.7302 17.9401 12.2002 18.4501C11.8102 18.8301 11.1902 18.8301 10.8002 18.4501C10.2702 17.9301 9.54023 17.2101 9.02023 16.6501C7.51023 15.0001 6.00023 13.4901 6.00023 10.8701C6.00023 7.33012 9.34023 4.57012 13.0402 5.58012C15.5502 6.26012 17.1302 8.62012 16.9902 11.2201C16.8602 13.6301 15.4202 15.0801 13.9802 16.6501Z" fill="#314146"/>
</svg>
