<svg width="20" height="20" viewBox="0 0 20 20" fill="none" xmlns="http://www.w3.org/2000/svg">
<path fill-rule="evenodd" clip-rule="evenodd" d="M0 10C0 4.48 4.48 0 10 0C15.52 0 20 4.48 20 10C20 15.52 15.52 20 10 20C4.48 20 0 15.52 0 10ZM5.61 16.68C6.87 17.51 8.38 18 10 18C11.62 18 13.13 17.51 14.39 16.68C13.33 15.69 11.81 15 10 15C8.19 15 6.67 15.69 5.61 16.68ZM10 13C12.43 13 14.48 13.98 15.89 15.39C17.2 13.97 18 12.08 18 10C18 5.59 14.41 2 10 2C5.59 2 2 5.59 2 10C2 12.08 2.8 13.97 4.11 15.39C5.52 13.98 7.57 13 10 13ZM6 8C6 5.79 7.79 4 10 4C12.21 4 14 5.79 14 8C14 10.21 12.21 12 10 12C7.79 12 6 10.21 6 8ZM8 8C8 9.1 8.9 10 10 10C11.1 10 12 9.1 12 8C12 6.9 11.1 6 10 6C8.9 6 8 6.9 8 8Z" fill="#314146"/>
</svg>
