<svg width="20" height="20" viewBox="0 0 20 20" fill="none" xmlns="http://www.w3.org/2000/svg">
<path d="M9.99988 0C4.47988 0 -0.00012207 4.48 -0.00012207 10C-0.00012207 15.52 4.47988 20 9.99988 20C15.5199 20 19.9999 15.52 19.9999 10C19.9999 4.48 15.5199 0 9.99988 0ZM14.4599 13.04C14.8499 13.43 14.8499 14.06 14.4599 14.45C14.0699 14.84 13.4399 14.84 13.0499 14.45L9.99988 11.41L6.95988 14.45C6.56988 14.84 5.93988 14.84 5.54988 14.45C5.15988 14.06 5.15988 13.43 5.54988 13.04L8.58987 10L5.54988 6.96C5.15988 6.57 5.15988 5.94 5.54988 5.55C5.93988 5.16 6.56988 5.16 6.95988 5.55L9.99988 8.59L13.0399 5.55C13.4299 5.16 14.0599 5.16 14.4499 5.55C14.8399 5.94 14.8399 6.57 14.4499 6.96L11.4099 10L14.4599 13.04Z" fill="#C3D5DC"/>
</svg>
