<svg width="24" height="24" viewBox="0 0 24 24" fill="none" xmlns="http://www.w3.org/2000/svg">
<path d="M20 16H19V10C19 6.77 16.82 4.06 13.85 3.25C13.56 2.52 12.84 2 12 2C11.16 2 10.44 2.52 10.15 3.25C7.18 4.06 5 6.77 5 10V16H4C3.45 16 3 16.45 3 17C3 17.55 3.45 18 4 18H7.6C7.6 20.21 9.57 22 12 22C14.43 22 16.4 20.21 16.4 18H20C20.55 18 21 17.55 21 17C21 16.45 20.55 16 20 16ZM12 20C10.67 20 9.6 19.1 9.6 18H14.4C14.4 19.1 13.33 20 12 20ZM17 16H7V10C7 7.24 9.24 5 12 5C14.76 5 17 7.24 17 10V16Z" fill="#314146"/>
</svg>
