<svg width="24" height="24" viewBox="0 0 24 24" fill="none" xmlns="http://www.w3.org/2000/svg">
<path fill-rule="evenodd" clip-rule="evenodd" d="M14.5 6.5C14.5 5.12 13.38 4 12 4C10.62 4 9.5 5.12 9.5 6.5C9.5 7.88 10.62 9 12 9C13.38 9 14.5 7.88 14.5 6.5ZM7.5 6.5C7.5 4.01 9.51 2 12 2C14.49 2 16.5 4.01 16.5 6.5C16.5 8.99 14.49 11 12 11C9.51 11 7.5 8.99 7.5 6.5ZM18 20C18 20.55 18.45 21 19 21C19.55 21 20 20.55 20 20C20 16.69 16.71 13 12 13C7.29 13 4 16.69 4 20C4 20.55 4.45 21 5 21C5.55 21 6 20.55 6 20C6 17.63 8.46 15 12 15C15.54 15 18 17.63 18 20Z" fill="#314146"/>
</svg>
