<svg width="24" height="24" viewBox="0 0 24 24" fill="none" xmlns="http://www.w3.org/2000/svg">
<path d="M20.7098 19.29L17.3198 15.9C18.3698 14.55 19.0098 12.85 19.0098 11C19.0098 6.58 15.4298 3 11.0098 3C6.58977 3 3.00977 6.58 3.00977 11C3.00977 15.42 6.58977 19 11.0098 19C12.8598 19 14.5598 18.37 15.9098 17.31L19.2998 20.7C19.6898 21.09 20.3198 21.09 20.7098 20.7C21.0998 20.32 21.0998 19.68 20.7098 19.29ZM10.9998 17C7.68977 17 4.99977 14.31 4.99977 11C4.99977 7.69 7.68977 5 10.9998 5C14.3098 5 16.9998 7.69 16.9998 11C16.9998 14.31 14.3098 17 10.9998 17Z" fill="#314146"/>
</svg>
