<svg width="32" height="32" viewBox="0 0 32 32" fill="none" xmlns="http://www.w3.org/2000/svg">
<path fill-rule="evenodd" clip-rule="evenodd" d="M10.5 8C11.88 8 13 9.12 13 10.5C13 11.88 11.88 13 10.5 13C9.12 13 8 11.88 8 10.5C8 9.12 9.12 8 10.5 8ZM10.5 6C8.01 6 6 8.01 6 10.5C6 12.99 8.01 15 10.5 15C12.99 15 15 12.99 15 10.5C15 8.01 12.99 6 10.5 6ZM21.5 8C22.88 8 24 9.12 24 10.5C24 11.88 22.88 13 21.5 13C20.12 13 19 11.88 19 10.5C19 9.12 20.12 8 21.5 8ZM21.5 6C19.01 6 17 8.01 17 10.5C17 12.99 19.01 15 21.5 15C23.99 15 26 12.99 26 10.5C26 8.01 23.99 6 21.5 6ZM16.01 18.47C17.26 17.57 18.78 17 20.5 17C25.21 17 28.5 21.22 28.5 25C28.5 25.55 28.05 26 27.5 26C26.95 26 26.5 25.55 26.5 25C26.5 22.16 24.04 19 20.5 19C19.38 19 18.36 19.32 17.5 19.85C18.76 21.34 19.5 23.22 19.5 25C19.5 25.55 19.05 26 18.5 26C17.95 26 17.5 25.55 17.5 25C17.5 22.16 15.04 19 11.5 19C7.96 19 5.5 22.16 5.5 25C5.5 25.55 5.05 26 4.5 26C3.95 26 3.5 25.55 3.5 25C3.5 21.22 6.79 17 11.5 17C13.23 17 14.76 17.57 16.01 18.47Z" fill="#314146"/>
</svg>
